<svg width="21" height="20" viewBox="0 0 21 20" fill="none" xmlns="http://www.w3.org/2000/svg">
<path d="M15.6676 11.683C17.2509 11.683 18.5333 12.9438 18.5333 14.4993C18.5333 16.054 17.2509 17.3148 15.6676 17.3148C14.0852 17.3148 12.8019 16.054 12.8019 14.4993C12.8019 12.9438 14.0852 11.683 15.6676 11.683ZM8.60271 13.2983C9.29623 13.2983 9.85919 13.8514 9.85919 14.5327C9.85919 15.2132 9.29623 15.7672 8.60271 15.7672H3.12311C2.4296 15.7672 1.86664 15.2132 1.86664 14.5327C1.86664 13.8514 2.4296 13.2983 3.12311 13.2983H8.60271ZM4.73236 2.5C6.31569 2.5 7.59809 3.76082 7.59809 5.31547C7.59809 6.87102 6.31569 8.13184 4.73236 8.13184C3.14996 8.13184 1.86664 6.87102 1.86664 5.31547C1.86664 3.76082 3.14996 2.5 4.73236 2.5ZM17.2778 4.08194C17.9703 4.08194 18.5333 4.63502 18.5333 5.31547C18.5333 5.99682 17.9703 6.54991 17.2778 6.54991H11.7982C11.1046 6.54991 10.5417 5.99682 10.5417 5.31547C10.5417 4.63502 11.1046 4.08194 11.7982 4.08194H17.2778Z" fill="white"/>
</svg>
